<svg width="23" height="28" viewBox="0 0 23 28" fill="none" xmlns="http://www.w3.org/2000/svg">
<path d="M11.5 0L21.9995 2.324C22.2832 2.38683 22.537 2.54414 22.7189 2.76997C22.9008 2.9958 23 3.27666 23 3.56618V16.2769C22.9999 17.534 22.6882 18.7717 22.0926 19.88C21.497 20.9883 20.6359 21.9331 19.5858 22.6304L11.5 28L3.41422 22.6304C2.36424 21.9332 1.50326 20.9887 0.907667 19.8806C0.312079 18.7725 0.000302011 17.5351 0 16.2782V3.56618C4.98816e-05 3.27666 0.099204 2.9958 0.281098 2.76997C0.462991 2.54414 0.716753 2.38683 1.0005 2.324L11.5 0ZM11.5 2.60782L2.55556 4.58691V16.2769C2.55557 17.1149 2.76329 17.94 3.16028 18.6789C3.55727 19.4178 4.13125 20.0476 4.83128 20.5125L11.5 24.9416L18.1687 20.5125C18.8686 20.0478 19.4424 19.4181 19.8394 18.6795C20.2364 17.9408 20.4442 17.116 20.4444 16.2782V4.58691L11.5 2.60782ZM11.5 7.63636C12.0627 7.63611 12.6097 7.82081 13.0562 8.16182C13.5027 8.50283 13.8237 8.98109 13.9695 9.52238C14.1152 10.0637 14.0776 10.6378 13.8623 11.1556C13.6471 11.6734 13.2663 12.1059 12.7791 12.3862L12.7778 17.8182H10.2222V12.3862C9.73506 12.106 9.35432 11.6735 9.13906 11.1559C8.9238 10.6382 8.88604 10.0642 9.03164 9.523C9.17724 8.98177 9.49806 8.50352 9.94435 8.1624C10.3906 7.82129 10.9375 7.63639 11.5 7.63636Z" fill="#F0EDED"/>
</svg>
