<svg width="18" height="21" viewBox="0 0 18 21" fill="none" xmlns="http://www.w3.org/2000/svg">
<path d="M1 0C1.17597 0.000135914 1.34879 0.0467035 1.501 0.135L17.505 9.401C17.6565 9.48891 17.7823 9.61508 17.8698 9.76689C17.9572 9.91869 18.0032 10.0908 18.0032 10.266C18.0032 10.4412 17.9572 10.6133 17.8698 10.7651C17.7823 10.9169 17.6565 11.0431 17.505 11.131L1.501 20.397C1.34903 20.485 1.17657 20.5314 1.00098 20.5316C0.825381 20.5317 0.652836 20.4857 0.500694 20.398C0.348553 20.3103 0.22218 20.1841 0.134287 20.0321C0.0463936 19.8801 7.85313e-05 19.7076 0 19.532V1C0 0.734784 0.105357 0.48043 0.292893 0.292893C0.48043 0.105357 0.734784 0 1 0ZM9.292 11.68L4.794 16.178L10.493 12.879L9.293 11.679L9.292 11.68ZM2 4.384V16.144L7.88 10.264L2 4.384ZM12.284 8.686L10.706 10.266L12.284 11.843L15.008 10.266L12.283 8.687L12.284 8.686ZM4.794 4.35L9.294 8.85L10.493 7.65L4.794 4.35Z" fill="#FCB040"/>
</svg>
